<?xml version="1.0" encoding="UTF-8"?>
<svg id="Layer_2" data-name="Layer 2" xmlns="http://www.w3.org/2000/svg" viewBox="0 0 312.28 361.41">
  <defs>
    <style>
      .cls-1 {
        fill: #725c29;
      }

      .cls-1, .cls-2, .cls-3, .cls-4, .cls-5, .cls-6, .cls-7 {
        stroke-width: 0px;
      }

      .cls-2 {
        fill: #efd497;
      }

      .cls-3 {
        fill: #ab8a3e;
      }

      .cls-5 {
        fill: #e9c675;
      }

      .cls-6 {
        fill: #e4b852;
      }

      .cls-7 {
        fill: #f4e3ba;
      }
    </style>
  </defs>
  <g id="Layer_1-2" data-name="Layer 1">
    <g>
      <path class="cls-6" d="M156.14,50.08c-7.15,0-12.94-5.79-12.94-12.94s5.79-12.94,12.94-12.94,12.94,5.8,12.94,12.94-5.79,12.94-12.94,12.94ZM156.14,4.71c-17.91,0-32.43,14.52-32.43,32.43s14.52,32.43,32.43,32.43,32.43-14.52,32.43-32.43-14.52-32.43-32.43-32.43"/>
      <path class="cls-4" d="M156.14,28.91c-4.54,0-8.23,3.7-8.23,8.23s3.7,8.23,8.23,8.23,8.23-3.69,8.23-8.23-3.69-8.23-8.23-8.23ZM156.14,54.8c-9.73,0-17.65-7.92-17.65-17.66s7.92-17.65,17.65-17.65,17.65,7.92,17.65,17.65-7.92,17.66-17.65,17.66ZM156.14,9.42c-15.29,0-27.72,12.44-27.72,27.72s12.43,27.72,27.72,27.72,27.72-12.43,27.72-27.72-12.43-27.72-27.72-27.72ZM156.14,74.29c-20.48,0-37.14-16.67-37.14-37.15S135.66,0,156.14,0s37.14,16.66,37.14,37.14-16.66,37.15-37.14,37.15"/>
      <path class="cls-6" d="M257,227.05v-93.62c0-51.72-49.49-93.65-100.86-93.65s-100.86,41.93-100.86,93.65v93.62C2.15,238.61,5.77,294.68,5.77,294.68h300.75s3.62-56.07-49.52-67.63"/>
      <path class="cls-4" d="M10.46,289.98h291.36c-.2-5.11-1.11-14.06-4.65-23.44-7.06-18.75-20.91-30.49-41.17-34.9-2.16-.47-3.7-2.38-3.7-4.59v-93.62c0-47.39-44.93-88.96-96.16-88.96s-96.16,41.57-96.16,88.96v93.62c0,2.21-1.54,4.12-3.7,4.59-20.37,4.43-34.26,16.27-41.28,35.19-3.46,9.33-4.35,18.11-4.54,23.15ZM306.52,299.37H5.77c-2.48,0-4.53-1.92-4.69-4.39-.04-.61-.9-15.2,5.12-31.42,5.4-14.55,17.48-33.02,44.39-40.2v-89.93c0-25.93,11.62-50.69,32.72-69.71,20.18-18.2,46.73-28.64,72.83-28.64s52.65,10.44,72.84,28.64c21.1,19.02,32.71,43.78,32.71,69.71v89.93c26.92,7.18,38.99,25.65,44.39,40.2,6.02,16.22,5.16,30.81,5.12,31.42-.16,2.47-2.21,4.39-4.69,4.39"/>
      <path class="cls-7" d="M143.2,60.31s-65.02,17.01-65.02,57.14v103.22s-32.6,9.48-32.6,37.73l21.25-6.64s2.21-28.38,32.93-33.92v-102.21s14.67-41.53,43.44-55.32"/>
      <path class="cls-2" d="M143.2,60.31s-48.91,17.01-48.91,57.14v103.22s-32.6,9.48-32.6,37.73l21.25-6.64s2.21-28.38,32.92-33.92v-102.21s-1.44-41.53,27.33-55.32"/>
      <path class="cls-1" d="M173.66,60.31s65.02,17.01,65.02,57.14v103.22s32.6,9.48,32.6,37.73l-21.26-6.64s-2.21-28.38-32.92-33.92v-102.21s-14.67-41.53-43.44-55.32"/>
      <path class="cls-3" d="M173.66,60.31s48.91,17.01,48.91,57.14v103.22s32.6,9.48,32.6,37.73l-21.26-6.64s-2.21-28.38-32.92-33.92v-102.21s1.45-41.53-27.32-55.32"/>
      <path class="cls-6" d="M307.57,294.68c0,27.74-67.79,50.23-151.43,50.23S4.71,322.42,4.71,294.68s67.8-50.24,151.43-50.24,151.43,22.49,151.43,50.24"/>
      <path class="cls-4" d="M156.14,249.16c-39.96,0-77.46,5.14-105.59,14.47-25.75,8.54-41.12,20.15-41.12,31.05s15.38,22.51,41.12,31.05c28.13,9.33,65.63,14.47,105.59,14.47s77.46-5.14,105.59-14.47c25.75-8.54,41.12-20.15,41.12-31.05s-15.37-22.51-41.12-31.05c-28.14-9.33-65.64-14.47-105.59-14.47ZM156.14,349.63c-40.94,0-79.49-5.31-108.56-14.96-30.68-10.18-47.58-24.38-47.58-39.99s16.9-29.82,47.58-40c29.07-9.64,67.62-14.95,108.56-14.95s79.49,5.31,108.56,14.95c30.68,10.18,47.58,24.39,47.58,40s-16.9,29.81-47.58,39.99c-29.07,9.65-67.62,14.96-108.56,14.96"/>
      <path class="cls-4" d="M268.51,294.68c0,18.88-50.31,34.18-112.37,34.18s-112.37-15.3-112.37-34.18,50.31-34.18,112.37-34.18,112.37,15.3,112.37,34.18"/>
      <path class="cls-4" d="M55.28,231.75c-2.21,0-4.18-1.57-4.61-3.83-.48-2.55,1.2-5,3.74-5.48.45-.08,44.93-8.39,82.99-9h.08c2.56,0,4.65,2.05,4.69,4.62.04,2.59-2.03,4.73-4.62,4.77-37.27.59-80.96,8.76-81.4,8.84-.3.05-.59.08-.88.08"/>
      <path class="cls-4" d="M257,231.75c-.31,0-.63-.03-.95-.1-.42-.08-42.36-8.62-68.14-8.82-2.59-.02-4.68-2.14-4.66-4.73.02-2.58,2.12-4.66,4.7-4.66h.04c26.7.2,68.2,8.65,69.96,9.01,2.54.52,4.18,3.01,3.66,5.55-.46,2.22-2.41,3.75-4.6,3.75"/>
      <path class="cls-6" d="M197.77,313.08c0,22.99-18.64,41.63-41.63,41.63s-41.63-18.64-41.63-41.63c0-7.05,1.75-13.68,4.84-19.5,10.38-3.92,23.08-6.23,36.79-6.23s26.42,2.31,36.8,6.24c3.09,5.82,4.83,12.45,4.83,19.49"/>
      <path class="cls-4" d="M124.17,298.97c-1.97,4.43-2.96,9.17-2.96,14.11,0,19.26,15.67,34.93,34.93,34.93s34.93-15.67,34.93-34.93c0-4.94-.99-9.67-2.96-14.11-9.5-3.22-20.49-4.92-31.97-4.92s-22.48,1.69-31.97,4.92ZM156.14,361.41c-26.65,0-48.33-21.68-48.33-48.33,0-7.89,1.95-15.72,5.62-22.64.76-1.43,2.02-2.54,3.54-3.12,11.53-4.36,25.07-6.67,39.16-6.67s27.63,2.31,39.17,6.67c1.52.58,2.78,1.69,3.54,3.13,3.68,6.92,5.62,14.75,5.62,22.63,0,26.65-21.68,48.33-48.33,48.33"/>
      <path class="cls-5" d="M172.1,331.79c0,6.29-7.14,11.4-15.96,11.4s-15.96-5.11-15.96-11.4,7.14-.9,15.96-.9,15.96-5.4,15.96.9"/>
      <path class="cls-2" d="M156.14,339.66c-5.34,0-10.02-2.27-11.73-5.33-.46-.82.27-1.79,1.18-1.57.31.07.62.15.94.22,2.65.64,5.95,1.44,9.61,1.44s6.96-.8,9.61-1.44c.32-.07.63-.15.94-.22.91-.22,1.64.75,1.18,1.57-1.71,3.06-6.39,5.33-11.73,5.33"/>
      <path class="cls-7" d="M156.14,337.69c-2.17,0-4.12-.41-5.73-1.05-.44-.17-.25-.84.22-.76,1.7.3,3.54.51,5.51.51s3.81-.21,5.51-.51c.47-.08.66.59.22.76-1.61.64-3.56,1.05-5.73,1.05"/>
    </g>
  </g>
</svg>