<?xml version="1.0" encoding="UTF-8"?>
<svg id="Layer_2" data-name="Layer 2" xmlns="http://www.w3.org/2000/svg" viewBox="0 0 353.16 336.57">
  <defs>
    <style>
      .cls-1 {
        fill: #c1272d;
      }

      .cls-1, .cls-2, .cls-3, .cls-4, .cls-5, .cls-6, .cls-7 {
        stroke-width: 0px;
      }

      .cls-3 {
        fill: #8cc63f;
      }

      .cls-4 {
        fill: #754c24;
      }

      .cls-5 {
        fill: #911d22;
      }

      .cls-6 {
        fill: #cd5257;
      }

      .cls-7 {
        fill: #da7d81;
      }
    </style>
  </defs>
  <g id="Layer_1-2" data-name="Layer 1">
    <path class="cls-4" d="M111.03,201.37S92.27,89.68,178.27,4.86l17.77,15.96s-18.41,81.18,61.4,124.96l-20.07,13.68s-76.16-60.5-64.76-114.77c0,0-51.07,56.07-38.76,148.12l-22.82,8.56"/>
    <path class="cls-2" d="M178.38,8.92c-42.36,42.81-57.69,92.27-63.07,126.46-4.69,29.79-2.85,53.3-1.85,61.93l17.17-6.44c-5.79-47.13,5.06-84.57,15.29-107.82,11.29-25.67,23.98-39.76,24.52-40.34.89-.99,2.33-1.25,3.52-.64,1.18.6,1.81,1.92,1.54,3.22-9.98,47.47,51.07,101.27,62.04,110.49l14.34-9.78c-39.05-23.03-53.09-55.21-57.95-78.52-4.61-22.08-2.1-40.06-1.1-45.58l-14.45-12.98ZM111.03,204.32c-.51,0-1.02-.14-1.47-.4-.77-.44-1.29-1.19-1.44-2.06-.19-1.16-4.7-28.84,1.37-67.39,5.6-35.59,21.72-87.33,66.71-131.7,1.11-1.1,2.88-1.14,4.04-.1l17.77,15.96c.79.72,1.14,1.8.9,2.85-.04.19-4.41,20.15.83,45.04,7,33.2,26.89,59,59.11,76.67.9.5,1.48,1.42,1.53,2.44.05,1.03-.44,2-1.28,2.58l-20.07,13.68c-1.07.73-2.48.68-3.49-.13-.79-.62-19.5-15.58-37.12-37.49-20.38-25.36-30.41-48.67-29.92-69.49-4.66,6.59-11.23,17.05-17.29,30.87-10.04,22.9-20.69,60.01-14.44,106.77.18,1.36-.6,2.67-1.88,3.15l-22.83,8.56c-.33.12-.68.19-1.03.19"/>
    <path class="cls-3" d="M102.39,59.85c-14.9,4.08-27.57,13-36.58,25.56-10.41,14.51-13.96,33.05-24.24,47.66-7.77,11.05-19.3,19.4-32.22,23.35,27.82,4.99,56.64,9.82,84.05,2.95,21.24-5.32,40.95-18.08,52.58-36.63,7.77-12.39,11.58-27.36,10.43-41.96-.43-5.44-1.14-15.48-5.27-19.57-3.91-3.88-12.71-4.59-17.76-5.02-7.38-.63-21.6,1.09-30.99,3.66"/>
    <path class="cls-2" d="M17.6,155.65c23.96,4.19,50.31,7.84,75.27,1.59,21.78-5.46,40.46-18.46,51.24-35.67,7.62-12.15,11.21-26.58,10.1-40.62l-.02-.31c-.4-5.04-1.13-14.42-4.6-17.87-3.3-3.27-11.71-3.99-16.22-4.37l-.18-.02c-7.07-.6-20.91,1.04-30.22,3.59-14.35,3.94-26.58,12.48-35.37,24.72-5.12,7.13-8.64,15.52-12.04,23.63-3.43,8.16-6.97,16.59-12.19,24.01-6.52,9.27-15.49,16.66-25.77,21.32ZM63.53,165c-18.8,0-37.42-3.34-54.56-6.41l-8.97-1.6,8.71-2.67c12.51-3.83,23.54-11.82,31.06-22.52,4.95-7.03,8.39-15.24,11.73-23.18,3.5-8.34,7.12-16.96,12.53-24.5,9.37-13.06,22.44-22.19,37.78-26.39,9.72-2.66,24.26-4.37,31.76-3.73h.17c5.43.48,14.51,1.25,18.95,5.65,4.63,4.59,5.42,14.64,5.89,20.65l.02.31c1.18,14.97-2.64,30.35-10.76,43.3-11.38,18.16-31.03,31.86-53.9,37.59-10.05,2.52-20.26,3.5-30.41,3.5"/>
    <path class="cls-2" d="M152.5,62.39c-3.99,4.16-7.71,8.77-11.36,13.41-3.64,4.65-7.2,9.39-10.75,14.15-3.56,4.75-7.08,9.54-10.73,14.25-1.82,2.34-3.73,4.73-5.85,6.89-2.1,2.16-4.29,4.21-6.54,6.17-4.5,3.93-9.18,7.63-14,11.14-4.82,3.49-9.74,6.87-14.95,9.8-5.21,2.9-10.67,5.37-16.3,7.3-5.63,1.91-11.47,3.32-17.41,3.67,5.92-.53,11.69-2.1,17.23-4.17,5.54-2.08,10.88-4.69,15.95-7.72,5.06-3.04,9.86-6.52,14.55-10.12,4.68-3.62,9.23-7.42,13.57-11.41,2.16-2,4.25-4.08,6.23-6.23,1-1.07,1.93-2.18,2.83-3.32.89-1.16,1.77-2.34,2.63-3.54,3.46-4.79,6.82-9.69,10.21-14.57,3.39-4.88,6.79-9.76,10.31-14.58,3.52-4.81,7.11-9.59,11.18-14.14l3.2,3.02"/>
    <path class="cls-1" d="M220.95,256.96c0,41.48-33.62,75.1-75.09,75.1s-75.09-33.62-75.09-75.1,33.62-75.09,75.09-75.09,75.09,33.62,75.09,75.09"/>
    <path class="cls-2" d="M145.86,186.39c-38.92,0-70.58,31.66-70.58,70.57s31.66,70.58,70.58,70.58,70.58-31.66,70.58-70.58-31.66-70.57-70.58-70.57ZM145.86,336.57c-43.9,0-79.61-35.71-79.61-79.61s35.71-79.61,79.61-79.61,79.61,35.72,79.61,79.61-35.71,79.61-79.61,79.61"/>
    <path class="cls-6" d="M130.11,239.45c-35.76,35.76-4.26,83.74-28.55,59.44-24.3-24.3-24.3-63.69,0-87.99,24.29-24.3,63.69-24.3,87.99,0,24.3,24.3-24.98-5.91-59.44,28.55"/>
    <path class="cls-7" d="M103.14,262.33c-1.18,3.99-6.98,3.54-7.54-.58-2.05-15.1,2.71-30.94,14.29-42.52,9.52-9.53,22.19-14.77,35.66-14.77,2.63,0,5.23.2,7.78.59,4.12.63,4.46,6.46.44,7.55-10.56,2.85-21.76,8.29-31.99,18.52-10.06,10.06-15.62,20.96-18.64,31.21"/>
    <path class="cls-5" d="M201.01,259.62c1.18-3.99,6.97-3.54,7.54.58,2.05,15.09-2.72,30.94-14.29,42.52-9.53,9.52-22.2,14.77-35.67,14.77-2.63,0-5.23-.2-7.78-.59-4.11-.63-4.46-6.46-.44-7.55,10.57-2.85,21.77-8.3,32-18.53s15.62-20.95,18.64-31.2"/>
    <path class="cls-1" d="M348.64,204.46c0,41.47-33.62,75.09-75.09,75.09s-75.09-33.62-75.09-75.09,33.62-75.1,75.09-75.1,75.09,33.62,75.09,75.1"/>
    <path class="cls-2" d="M273.55,133.88c-38.92,0-70.58,31.66-70.58,70.58s31.66,70.57,70.58,70.57,70.58-31.66,70.58-70.57-31.66-70.58-70.58-70.58ZM273.55,284.06c-43.9,0-79.61-35.71-79.61-79.6s35.71-79.61,79.61-79.61,79.61,35.71,79.61,79.61-35.71,79.6-79.61,79.6"/>
    <path class="cls-6" d="M257.8,186.95c-35.76,35.75-4.26,83.73-28.56,59.43s-24.29-63.69,0-87.99c24.3-24.3,63.7-24.3,88,0s-24.98-5.91-59.44,28.56"/>
    <path class="cls-7" d="M230.82,209.82c-1.17,3.99-6.97,3.54-7.53-.58-2.05-15.09,2.71-30.94,14.29-42.52,9.52-9.52,22.19-14.77,35.66-14.77,2.63,0,5.23.2,7.78.59,4.12.63,4.46,6.46.44,7.55-10.56,2.85-21.76,8.3-31.99,18.53-10.06,10.06-15.62,20.95-18.65,31.2"/>
    <path class="cls-5" d="M328.7,207.11c1.18-3.99,6.97-3.54,7.53.58,2.06,15.1-2.71,30.94-14.28,42.52-9.53,9.53-22.2,14.77-35.67,14.77-2.63,0-5.23-.2-7.78-.59-4.11-.63-4.46-6.46-.44-7.55,10.57-2.85,21.77-8.29,32-18.52,10.06-10.06,15.62-20.96,18.64-31.21"/>
    <path class="cls-4" d="M196.77,19.59c-2.6,3.53-9.02,3.22-14.33-.69-5.31-3.92-7.51-9.95-4.91-13.48,2.6-3.54,9.02-3.23,14.33.69,5.31,3.91,7.51,9.94,4.91,13.48"/>
    <path class="cls-2" d="M183.19,5.89c-1.5,0-2.68.45-3.29,1.27-1.4,1.91.02,6.22,4.29,9.37,4.27,3.14,8.81,3.21,10.21,1.31,1.4-1.9,0-6.22-4.28-9.36-2.44-1.79-4.96-2.59-6.93-2.59ZM191.13,25c-3.33,0-7.06-1.24-10.44-3.73-6.72-4.95-9.15-12.68-5.53-17.6,3.62-4.92,11.73-4.89,18.45.07,6.72,4.95,9.15,12.68,5.53,17.59-1.8,2.45-4.71,3.67-8.01,3.67"/>
  </g>
</svg>