<?xml version="1.0" encoding="UTF-8"?>
<svg id="Layer_2" data-name="Layer 2" xmlns="http://www.w3.org/2000/svg" viewBox="0 0 317.19 293.33">
  <defs>
    <style>
      .cls-1 {
        fill: #33a86a;
      }

      .cls-1, .cls-2, .cls-3 {
        stroke-width: 0px;
      }

      .cls-3 {
        fill: #009245;
      }
    </style>
  </defs>
  <g id="Layer_1-2" data-name="Layer 1">
    <path class="cls-3" d="M292.52,146.65h-121.91l-.08.08,65.93,65.94c7.5,7.49,17.67,11.7,28.27,11.7,25.15,0,43.34-19.02,47.53-42.08,2.64-14.59-6.07-29.87-19.74-35.64"/>
    <path class="cls-1" d="M292.52,146.65c13.67-5.76,22.38-21.04,19.74-35.63-4.19-23.06-22.38-42.09-47.53-42.09-10.6,0-20.77,4.22-28.27,11.71l-65.85,66.01h121.91"/>
    <path class="cls-3" d="M170.61,24.74v121.91l.08.08,65.93-65.93c7.5-7.5,11.71-17.67,11.71-28.27,0-25.15-19.02-43.34-42.09-47.52-14.59-2.65-29.86,6.07-35.63,19.73"/>
    <path class="cls-1" d="M170.61,24.74c-5.77-13.66-21.04-22.38-35.64-19.73-23.06,4.18-42.08,22.37-42.08,47.52,0,10.6,4.21,20.77,11.71,28.27l66.01,65.85V24.74"/>
    <path class="cls-3" d="M48.69,146.65h121.92l.08-.07-65.94-65.94c-7.49-7.49-17.66-11.71-28.26-11.71-25.15,0-43.35,19.03-47.53,42.09-2.65,14.59,6.07,29.87,19.73,35.63"/>
    <path class="cls-1" d="M48.69,146.65c-13.66,5.77-22.38,21.05-19.73,35.64,4.18,23.06,22.38,42.08,47.53,42.08,10.6,0,20.77-4.21,28.26-11.7l65.86-66.02H48.69"/>
    <path class="cls-3" d="M170.61,268.58v-121.92l-.08-.07-65.93,65.93c-7.5,7.49-11.71,17.66-11.71,28.27,0,25.14,19.02,43.34,42.08,47.52,14.6,2.65,29.87-6.07,35.64-19.73"/>
    <path class="cls-1" d="M170.61,268.58c5.77,13.66,21.04,22.38,35.63,19.73,23.07-4.18,42.09-22.38,42.09-47.52,0-10.61-4.21-20.78-11.71-28.27l-66.01-65.86v121.92"/>
    <path class="cls-3" d="M94.9,227.97c-8.21,19.58-29.58,51.05-81.73,48.68-2.05-.1-3.78-1.54-4.22-3.55l-4.38-20.12c-.72-3.3,2.33-6.19,5.59-5.3,12.24,3.36,39.31,5.04,77.83-25.02,3.66-2.85,8.71,1.03,6.91,5.31"/>
    <path class="cls-2" d="M8.97,251.99l4.35,20.17c49.7,2.27,69.86-27.79,77.46-45.91.02-.05.03-.07.03-.08-.01.03-.07-.02-.1-.02-39.78,31.09-68.29,29.53-81.74,25.84ZM18.71,281.24c-1.87,0-3.79-.05-5.75-.13-4.07-.19-7.51-3.09-8.37-7.06L.21,253.93c-.67-3.09.3-6.24,2.59-8.42,2.3-2.17,5.49-2.97,8.54-2.13,11.83,3.24,37.17,4.42,73.91-24.24,3.26-2.54,7.66-2.56,10.94-.05,3.3,2.52,4.43,6.78,2.83,10.61-8.2,19.55-29.41,51.54-80.31,51.54"/>
    <path class="cls-2" d="M103.08,209.65c1.14,0,2.29.44,3.16,1.31,1.67,1.68,1.74,4.38.16,6.14-5.89,6.54-9.13,14.98-9.13,23.77,0,21.29,15.8,39.03,38.42,43.13,12.45,2.26,25.66-5.08,30.73-17.08.69-1.65,2.31-2.72,4.11-2.72s3.41,1.07,4.11,2.72c5.06,12,18.27,19.34,30.73,17.08,22.62-4.1,38.42-21.84,38.42-43.13,0-8.79-3.24-17.23-9.13-23.77-1.58-1.76-1.51-4.46.17-6.14,1.67-1.68,4.37-1.75,6.14-.16,6.53,5.88,14.97,9.12,23.76,9.12,21.29,0,39.03-15.8,43.13-38.42,2.26-12.45-5.08-25.66-17.07-30.72-1.66-.7-2.73-2.32-2.73-4.12s1.07-3.41,2.73-4.11c11.99-5.06,19.33-18.27,17.07-30.72-4.1-22.62-21.84-38.42-43.13-38.42-8.79,0-17.23,3.24-23.76,9.12-1.77,1.59-4.47,1.52-6.14-.16-1.68-1.68-1.75-4.38-.17-6.14,5.89-6.54,9.13-14.98,9.13-23.77,0-21.29-15.8-39.03-38.42-43.13-12.46-2.26-25.66,5.08-30.73,17.08-.7,1.65-2.32,2.72-4.11,2.72s-3.42-1.07-4.11-2.72c-5.07-12-18.27-19.34-30.73-17.08-22.62,4.1-38.42,21.84-38.42,43.13,0,8.79,3.24,17.23,9.13,23.77,1.58,1.76,1.51,4.46-.17,6.14-1.67,1.68-4.37,1.75-6.14.16-6.53-5.88-14.97-9.12-23.76-9.12-21.29,0-39.03,15.8-43.13,38.42-2.26,12.45,5.08,25.66,17.07,30.72,1.65.7,2.73,2.32,2.73,4.11s-1.08,3.42-2.73,4.12c-11.99,5.06-19.33,18.27-17.07,30.72,4.1,22.62,21.84,38.42,43.13,38.42,8.79,0,17.23-3.24,23.76-9.12.85-.77,1.92-1.15,2.99-1.15ZM200.9,293.33c-11.78,0-23.32-6.01-30.37-15.68-8.26,11.32-22.68,17.63-36.43,15.13-26.94-4.88-45.76-26.23-45.76-51.91,0-4.96.83-9.82,2.4-14.42-4.6,1.58-9.46,2.4-14.41,2.4-25.68,0-47.03-18.82-51.92-45.76-2.49-13.75,3.81-28.17,15.13-36.43-11.32-8.25-17.62-22.68-15.13-36.43,4.89-26.94,26.24-45.75,51.92-45.75,4.95,0,9.81.82,14.41,2.4-1.57-4.6-2.4-9.46-2.4-14.42,0-25.68,18.82-47.03,45.76-51.91,13.75-2.5,28.17,3.8,36.43,15.13,8.25-11.33,22.68-17.63,36.43-15.13,26.94,4.88,45.75,26.23,45.75,51.91,0,4.96-.82,9.82-2.39,14.42,4.59-1.58,9.46-2.4,14.41-2.4,25.68,0,47.03,18.81,51.92,45.75,2.49,13.75-3.81,28.18-15.13,36.43,11.32,8.26,17.62,22.68,15.13,36.43-4.89,26.94-26.24,45.76-51.92,45.76-4.95,0-9.82-.82-14.41-2.4,1.57,4.6,2.39,9.46,2.39,14.42,0,25.68-18.81,47.03-45.75,51.91-2.01.37-4.04.55-6.06.55"/>
  </g>
</svg>