<?xml version="1.0" encoding="UTF-8"?>
<svg id="Layer_2" data-name="Layer 2" xmlns="http://www.w3.org/2000/svg" viewBox="0 0 404.66 295.45">
  <defs>
    <style>
      .cls-1, .cls-2, .cls-3, .cls-4 {
        stroke-width: 0px;
      }

      .cls-2 {
        fill: #5f9ab3;
      }

      .cls-3 {
        fill: #7fcdee;
      }

      .cls-4 {
        fill: #ccebf8;
      }
    </style>
  </defs>
  <g id="Layer_1-2" data-name="Layer 1">
    <path class="cls-3" d="M311.92,4.67H92.74L6.61,88.05l195.72,200.71,195.72-200.71L311.92,4.67"/>
    <path class="cls-1" d="M13.22,88.15l189.11,193.93,189.11-193.93L310.03,9.33H94.62L13.22,88.15ZM202.33,295.45L0,87.96,90.85,0h222.96l90.85,87.96-202.33,207.49"/>
    <path class="cls-3" d="M263.46,4.67h-122.27l-48.05,83.38,109.18,196.31,109.18-196.31L263.46,4.67"/>
    <path class="cls-1" d="M98.51,88.09l103.82,186.67,103.82-186.67-45.38-78.76h-116.88l-45.38,78.76ZM202.33,293.96L87.79,88.01,138.5,0h127.66l50.71,88.01-114.54,205.95"/>
    <path class="cls-1" d="M398.05,92.72H6.61v-9.33h391.44v9.33"/>
    <path class="cls-4" d="M95.88,12.59h28.38l-37.06,61.77h-51.54L95.88,12.59"/>
    <path class="cls-4" d="M34.51,98.68h51.54l71.8,128.93L34.51,98.68Z"/>
    <path class="cls-4" d="M116.54,74.36l32.62-59.64h107.7l-99.02,9.65-41.3,49.99"/>
    <path class="cls-4" d="M116.54,98.68h161.74l-142.64,8.88,65.24,150.74L116.54,98.68"/>
    <path class="cls-2" d="M325.38,98.68h47.48l-117.84,125.75,98.73-117.55-28.37-8.2"/>
    <path class="cls-2" d="M284.46,14.72h23.74l63.5,62.53-65.43-57.52-21.81-5.01"/>
  </g>
</svg>