<?xml version="1.0" encoding="UTF-8"?>
<svg id="Layer_2" data-name="Layer 2" xmlns="http://www.w3.org/2000/svg" viewBox="0 0 263.92 263.91">
  <defs>
    <style>
      .cls-1 {
        fill: #725c29;
      }

      .cls-1, .cls-2, .cls-3, .cls-4, .cls-5 {
        stroke-width: 0px;
      }

      .cls-2 {
        fill: #ab8a3e;
      }

      .cls-4 {
        fill: #e4b852;
      }

      .cls-5 {
        fill: #f4e3ba;
      }
    </style>
  </defs>
  <g id="Layer_1-2" data-name="Layer 1">
    <path class="cls-4" d="M259.2,131.95c0,70.28-56.97,127.25-127.24,127.25S4.72,202.23,4.72,131.95,61.69,4.71,131.96,4.71s127.24,56.97,127.24,127.24"/>
    <path class="cls-3" d="M131.96,9.42c-67.56,0-122.53,54.97-122.53,122.53s54.97,122.53,122.53,122.53,122.53-54.96,122.53-122.53S199.52,9.42,131.96,9.42ZM131.96,263.91c-35.25,0-68.38-13.73-93.31-38.65C13.73,200.34,0,167.2,0,131.95S13.73,63.57,38.65,38.65C63.58,13.72,96.71,0,131.96,0s68.38,13.72,93.31,38.65c24.92,24.92,38.65,58.06,38.65,93.3s-13.73,68.39-38.65,93.31c-24.93,24.92-58.06,38.65-93.31,38.65"/>
    <path class="cls-4" d="M37.12,131.95c0-52.38,42.46-94.84,94.84-94.84s94.84,42.46,94.84,94.84"/>
    <path class="cls-3" d="M37.12,131.95c-.43-12.42,1.76-24.98,6.32-36.66,2.3-5.84,5.19-11.45,8.6-16.74,3.4-5.29,7.38-10.22,11.78-14.74,8.79-9.05,19.48-16.27,31.13-21.2,11.67-4.92,24.34-7.42,37.01-7.46,12.67.03,25.34,2.54,37.01,7.45,5.83,2.47,11.41,5.51,16.64,9.06,1.3.89,2.57,1.84,3.85,2.76,1.25.96,2.48,1.96,3.71,2.95,1.19,1.03,2.37,2.09,3.55,3.13l3.39,3.3c4.4,4.53,8.37,9.45,11.78,14.75,3.41,5.28,6.3,10.9,8.59,16.73,4.57,11.69,6.75,24.25,6.32,36.67-.44-12.41-3.13-24.68-8.1-35.93-2.45-5.63-5.45-11.01-8.95-16.04-3.49-5.03-7.43-9.74-11.81-14.01l-3.36-3.11c-1.17-.98-2.32-1.98-3.5-2.95-1.22-.92-2.41-1.87-3.63-2.78-1.25-.87-2.49-1.77-3.76-2.61-5.09-3.35-10.51-6.2-16.14-8.48-5.64-2.29-11.49-4.07-17.46-5.23-5.97-1.17-12.05-1.74-18.13-1.74-6.08,0-12.16.57-18.13,1.74-5.97,1.16-11.82,2.94-17.46,5.22-5.64,2.29-11.05,5.14-16.15,8.49-1.27.84-2.5,1.74-3.75,2.6-1.23.91-2.42,1.87-3.63,2.79-1.18.97-2.34,1.96-3.51,2.94l-3.35,3.12c-4.38,4.26-8.32,8.98-11.82,14-3.49,5.03-6.49,10.42-8.95,16.05-4.96,11.25-7.65,23.52-8.09,35.93"/>
    <path class="cls-4" d="M226.8,131.95c0,52.38-42.46,94.84-94.84,94.84s-94.84-42.46-94.84-94.84"/>
    <path class="cls-3" d="M226.8,131.95c.43,12.42-1.75,24.98-6.32,36.67-2.3,5.83-5.19,11.45-8.6,16.73-3.4,5.3-7.38,10.23-11.78,14.75-8.79,9.05-19.48,16.26-31.13,21.2-11.67,4.92-24.34,7.41-37.01,7.46-12.67-.04-25.34-2.55-37.01-7.46-5.83-2.46-11.41-5.5-16.64-9.06-1.3-.89-2.57-1.84-3.85-2.76-1.25-.96-2.48-1.96-3.71-2.94-1.2-1.03-2.37-2.09-3.55-3.14l-3.39-3.3c-4.4-4.52-8.37-9.45-11.78-14.74-3.41-5.29-6.3-10.9-8.59-16.74-4.57-11.68-6.75-24.25-6.32-36.67.44,12.41,3.13,24.68,8.1,35.93,2.46,5.63,5.45,11.02,8.95,16.05,3.49,5.03,7.43,9.74,11.81,14l3.36,3.12c1.17.98,2.32,1.97,3.5,2.94,1.22.92,2.41,1.88,3.63,2.79,1.25.86,2.49,1.76,3.76,2.6,5.09,3.35,10.5,6.2,16.14,8.49,5.64,2.29,11.49,4.06,17.46,5.22,5.97,1.17,12.05,1.74,18.13,1.74,6.08.01,12.16-.57,18.13-1.73,5.97-1.16,11.82-2.94,17.46-5.23,5.64-2.28,11.05-5.13,16.15-8.48,1.27-.85,2.5-1.74,3.75-2.61,1.23-.91,2.42-1.86,3.63-2.78,1.18-.97,2.34-1.97,3.51-2.95l3.35-3.11c4.38-4.27,8.32-8.98,11.82-14.01,3.49-5.03,6.49-10.42,8.95-16.05,4.96-11.25,7.65-23.52,8.09-35.93"/>
    <path class="cls-1" d="M37.12,131.95c-.43-12.42,1.76-24.98,6.32-36.66,2.3-5.84,5.19-11.45,8.6-16.74,3.4-5.29,7.38-10.22,11.78-14.74,8.79-9.05,19.48-16.27,31.13-21.2,11.67-4.92,24.34-7.42,37.01-7.46,12.67.03,25.34,2.54,37.01,7.45,5.83,2.47,11.41,5.51,16.64,9.06,1.3.89,2.57,1.84,3.85,2.76,1.25.96,2.48,1.96,3.71,2.95,1.19,1.03,2.37,2.09,3.55,3.13l3.39,3.3c4.4,4.53,8.37,9.45,11.78,14.75,3.41,5.28,6.3,10.9,8.59,16.73,4.57,11.69,6.75,24.25,6.32,36.67-.44-12.41-3.13-24.68-8.1-35.93-2.45-5.63-5.45-11.01-8.95-16.04-3.49-5.03-7.43-9.74-11.81-14.01l-3.36-3.11c-1.17-.98-2.32-1.98-3.5-2.95-1.22-.92-2.41-1.87-3.63-2.78-1.25-.87-2.49-1.77-3.76-2.61-5.09-3.35-10.51-6.2-16.14-8.48-5.64-2.29-11.49-4.07-17.46-5.23-5.97-1.17-12.05-1.74-18.13-1.74-6.08,0-12.16.57-18.13,1.74-5.97,1.16-11.82,2.94-17.46,5.22-5.64,2.29-11.05,5.14-16.15,8.49-1.27.84-2.5,1.74-3.75,2.6-1.23.91-2.42,1.87-3.63,2.79-1.18.97-2.34,1.96-3.51,2.94l-3.35,3.12c-4.38,4.26-8.32,8.98-11.82,14-3.49,5.03-6.49,10.42-8.95,16.05-4.96,11.25-7.65,23.52-8.09,35.93"/>
    <path class="cls-5" d="M226.8,131.95c.43,12.42-1.75,24.98-6.32,36.67-2.3,5.83-5.19,11.45-8.6,16.73-3.4,5.3-7.38,10.23-11.78,14.75-8.79,9.05-19.48,16.26-31.13,21.2-11.67,4.92-24.34,7.41-37.01,7.46-12.67-.04-25.34-2.55-37.01-7.46-5.83-2.46-11.41-5.5-16.64-9.06-1.3-.89-2.57-1.84-3.85-2.76-1.25-.96-2.48-1.96-3.71-2.94-1.2-1.03-2.37-2.09-3.55-3.14l-3.39-3.3c-4.4-4.52-8.37-9.45-11.78-14.74-3.41-5.29-6.3-10.9-8.59-16.74-4.57-11.68-6.75-24.25-6.32-36.67.44,12.41,3.13,24.68,8.1,35.93,2.46,5.63,5.45,11.02,8.95,16.05,3.49,5.03,7.43,9.74,11.81,14l3.36,3.12c1.17.98,2.32,1.97,3.5,2.94,1.22.92,2.41,1.88,3.63,2.79,1.25.86,2.49,1.76,3.76,2.6,5.09,3.35,10.5,6.2,16.14,8.49,5.64,2.29,11.49,4.06,17.46,5.22,5.97,1.17,12.05,1.74,18.13,1.74,6.08.01,12.16-.57,18.13-1.73,5.97-1.16,11.82-2.94,17.46-5.23,5.64-2.28,11.05-5.13,16.15-8.48,1.27-.85,2.5-1.74,3.75-2.61,1.23-.91,2.42-1.86,3.63-2.78,1.18-.97,2.34-1.97,3.51-2.95l3.35-3.11c4.38-4.27,8.32-8.98,11.82-14.01,3.49-5.03,6.49-10.42,8.95-16.05,4.96-11.25,7.65-23.52,8.09-35.93"/>
    <path class="cls-5" d="M12.95,131.95c-.22-15.58,2.75-31.23,8.6-45.73,5.89-14.49,14.7-27.8,25.72-38.95,11.02-11.17,24.3-20.08,38.79-26.14,14.49-6.06,30.2-9.15,45.9-9.17,15.71.02,31.41,3.11,45.9,9.17,14.49,6.05,27.78,14.97,38.79,26.13,11.02,11.16,19.83,24.47,25.72,38.96,5.85,14.5,8.82,30.15,8.6,45.73l-.22-5.84c-.14-1.94-.34-3.87-.5-5.81-.04-.49-.11-.97-.18-1.45l-.19-1.44-.4-2.89c-.03-.24-.06-.49-.1-.72l-.14-.72-.27-1.43-.54-2.87c-1.58-7.61-3.91-15.05-6.95-22.19-6.02-14.3-14.89-27.37-25.9-38.26l-4.23-3.97c-1.47-1.26-2.93-2.53-4.42-3.77-1.53-1.18-3.03-2.39-4.58-3.55l-2.37-1.68-1.18-.83c-.4-.28-.79-.57-1.2-.82-6.44-4.28-13.3-7.93-20.45-10.86-7.14-2.94-14.57-5.2-22.16-6.69-7.58-1.49-15.3-2.23-23.03-2.24-7.73,0-15.45.75-23.03,2.24-7.59,1.49-15.02,3.75-22.16,6.68-7.15,2.94-14.01,6.59-20.45,10.87-6.44,4.29-12.47,9.18-17.98,14.62-11.02,10.88-19.88,23.96-25.9,38.26-3.04,7.13-5.38,14.58-6.96,22.19l-.54,2.87-.27,1.43-.13.72c-.04.23-.07.48-.1.72-.26,1.93-.55,3.85-.77,5.78-.16,1.94-.36,3.87-.5,5.81l-.22,5.84"/>
    <path class="cls-2" d="M250.97,131.95c.22,15.59-2.75,31.23-8.6,45.73-5.89,14.5-14.7,27.81-25.72,38.96-11.02,11.16-24.3,20.08-38.79,26.13-14.49,6.06-30.19,9.15-45.9,9.18-15.71-.03-31.41-3.12-45.9-9.17-14.49-6.06-27.78-14.97-38.79-26.14-11.02-11.15-19.83-24.46-25.72-38.96-5.85-14.5-8.82-30.14-8.6-45.73l.22,5.84c.14,1.94.34,3.88.5,5.81.04.49.11.97.18,1.45l.19,1.45.4,2.89c.03.24.06.48.1.72l.14.71.27,1.44.53,2.86c1.59,7.61,3.92,15.06,6.96,22.2,6.02,14.3,14.89,27.37,25.9,38.25l4.23,3.98c1.47,1.25,2.93,2.52,4.41,3.76,1.54,1.18,3.04,2.4,4.59,3.56l2.37,1.67,1.18.84c.4.27.79.56,1.2.82,6.44,4.27,13.3,7.92,20.45,10.86,7.14,2.94,14.57,5.19,22.16,6.68,7.58,1.5,15.3,2.24,23.03,2.24s15.45-.74,23.03-2.24c7.59-1.49,15.02-3.74,22.16-6.68,7.15-2.94,14.01-6.58,20.45-10.86,6.44-4.29,12.47-9.19,17.98-14.62,11.01-10.89,19.88-23.96,25.9-38.26,3.04-7.14,5.37-14.59,6.96-22.2l.54-2.86.27-1.44.13-.71c.04-.24.07-.48.1-.72.25-1.93.55-3.85.77-5.79.16-1.93.36-3.87.5-5.81l.22-5.84"/>
    <path class="cls-1" d="M137.75,172.55v-24.58c6.41,3.54,9.16,7.31,9.16,12.53,0,5.57-3.14,9.84-9.16,12.05ZM119.99,103.19c0-4.21,2.53-8.13,7.75-10.33v21.27c-5.33-3.07-7.75-6.23-7.75-10.94ZM175.9,158.59c0-17.8-10.32-29.37-32.61-37.7-1.98-.75-3.83-1.46-5.54-2.14v-27.73c.18,0,.36-.01.55-.01,12.22,0,21.29,3.6,26.28,5.98l6.29-22.83c-7.43-3.48-17.79-6.33-32.15-6.33h-.97v-5.32h-10.01v6.13c-23.01,3.54-36.64,18.31-36.64,36.97s13.72,29.84,34.73,37.29c.65.23,1.29.46,1.91.69v30.61c-.28,0-.56,0-.84,0-12.17,0-24.02-3.86-31.56-7.91l-5.75,23.52c7.01,3.95,21.29,7.83,35.56,7.83.88,0,1.74-.02,2.59-.04v5.36h10.01v-6.21c25.97-3.86,38.15-19.89,38.15-38.17"/>
    <path class="cls-5" d="M136.18,170.98v-24.58c6.41,3.54,9.16,7.31,9.16,12.53,0,5.57-3.14,9.84-9.16,12.05ZM118.41,101.62c0-4.21,2.54-8.13,7.76-10.33v21.27c-5.33-3.07-7.76-6.23-7.76-10.94ZM174.33,157.02c0-17.8-10.32-29.37-32.61-37.7-1.98-.75-3.83-1.46-5.54-2.15v-27.72c.18,0,.36-.01.55-.01,12.22,0,21.29,3.6,26.28,5.98l6.29-22.83c-7.43-3.48-17.79-6.34-32.15-6.34-.33,0-.65,0-.97,0v-5.32h-10.01v6.13c-23.01,3.53-36.64,18.31-36.64,36.97s13.72,29.84,34.73,37.29c.65.23,1.29.46,1.91.69v30.61c-.28,0-.56,0-.84,0-12.18,0-24.02-3.86-31.56-7.91l-5.75,23.52c7.01,3.95,21.29,7.83,35.56,7.83.88,0,1.74-.02,2.59-.04v5.36h10.01v-6.21c25.97-3.86,38.15-19.89,38.15-38.17"/>
    <path class="cls-2" d="M136.96,171.76v-24.57c6.42,3.53,9.16,7.3,9.16,12.52,0,5.57-3.13,9.84-9.16,12.05ZM119.2,102.4c0-4.21,2.53-8.12,7.76-10.32v21.27c-5.33-3.07-7.76-6.23-7.76-10.95ZM175.12,157.8c0-17.8-10.32-29.36-32.61-37.7-1.99-.75-3.83-1.46-5.55-2.14v-27.72c.19-.01.37-.01.55-.01,12.23,0,21.29,3.59,26.28,5.97l6.29-22.82c-7.42-3.49-17.79-6.34-32.14-6.34-.33,0-.65,0-.98,0v-5.33h-10v6.13c-23.02,3.54-36.65,18.31-36.65,36.98s13.73,29.83,34.73,37.28c.66.24,1.29.46,1.92.69v30.61c-.28,0-.56.02-.85.02-12.17,0-24.01-3.87-31.55-7.91l-5.76,23.52c7.02,3.94,21.29,7.82,35.56,7.82.88,0,1.74-.01,2.6-.03v5.35h10v-6.2c25.98-3.87,38.16-19.89,38.16-38.18"/>
  </g>
</svg>